<?xml version="1.0" standalone="no"?>
<!DOCTYPE svg PUBLIC "-//W3C//DTD SVG 20010904//EN"
 "http://www.w3.org/TR/2001/REC-SVG-20010904/DTD/svg10.dtd">
<svg version="1.0" xmlns="http://www.w3.org/2000/svg"
 width="500.000000pt" height="102.000000pt" viewBox="0 0 500.000000 102.000000"
 preserveAspectRatio="xMidYMid meet">

<g transform="translate(0.000000,102.000000) scale(0.100000,-0.100000)"
fill="#000000" stroke="none">
<path d="M970 666 l0 -316 40 0 40 0 -2 313 -3 312 -37 3 -38 3 0 -315z"/>
<path d="M1200 665 l0 -315 35 0 35 0 0 240 c0 133 4 240 9 240 5 0 57 -73
116 -162 232 -352 204 -317 253 -318 l42 0 0 316 0 315 -37 -3 -38 -3 -5 -244
-5 -244 -164 247 -164 246 -39 0 -38 0 0 -315z"/>
<path d="M2397 973 c-4 -3 -7 -145 -7 -315 l0 -308 35 0 35 0 0 309 0 309 -22
6 c-29 7 -33 7 -41 -1z"/>
<path d="M2560 945 l0 -35 140 0 140 0 0 35 0 35 -140 0 -140 0 0 -35z"/>
<path d="M2980 665 l0 -315 35 0 35 0 0 240 c0 132 3 240 8 240 4 0 79 -108
166 -240 l160 -240 43 0 43 0 -2 313 -3 312 -35 0 -35 0 -5 -245 -5 -245 -165
248 -164 247 -38 0 -38 0 0 -315z"/>
<path d="M3630 665 l0 -315 35 0 35 0 0 315 0 315 -35 0 -35 0 0 -315z"/>
<path d="M3860 752 c0 -257 8 -299 65 -356 42 -42 104 -59 197 -54 89 5 141
28 178 80 41 56 52 139 48 363 l-3 190 -37 3 -36 3 -4 -233 c-3 -213 -5 -236
-23 -268 -27 -46 -76 -70 -143 -70 -72 0 -118 23 -142 71 -18 35 -20 60 -20
263 0 243 2 236 -56 236 l-24 0 0 -228z"/>
<path d="M4895 972 c-17 -12 -175 -228 -175 -239 0 -6 7 -16 15 -23 20 -17 19
-36 -4 -68 l-19 -27 85 -120 c46 -66 87 -126 92 -133 5 -9 24 -12 54 -10 l47
3 -110 155 c-60 85 -110 161 -110 168 0 7 43 71 95 142 53 72 98 137 101 145
5 11 -2 15 -27 15 -19 0 -39 -4 -44 -8z"/>
<path d="M1782 913 c77 -104 188 -265 188 -273 0 -4 -45 -69 -100 -145 -55
-76 -100 -142 -100 -147 0 -5 17 -8 38 -6 35 3 43 10 125 121 l87 117 -21 30
-22 29 27 35 c14 19 22 37 18 40 -5 3 -48 62 -96 131 l-87 125 -50 0 -50 0 43
-57z"/>
<path d="M2560 675 l0 -35 130 0 130 0 0 35 0 35 -130 0 -130 0 0 -35z"/>
<path d="M2560 385 l0 -35 150 0 150 0 0 35 0 35 -150 0 -150 0 0 -35z"/>
<path d="M224 289 c-14 -23 26 -29 201 -29 175 0 215 6 201 29 -5 7 -70 11
-201 11 -131 0 -196 -4 -201 -11z"/>
<path d="M1040 231 c0 -6 17 -11 38 -13 l37 -3 3 -102 c2 -83 6 -103 17 -103
12 0 15 19 15 105 l0 105 35 0 c19 0 35 5 35 10 0 6 -37 10 -90 10 -49 0 -90
-4 -90 -9z"/>
<path d="M1260 125 l0 -115 85 0 c50 0 85 4 85 10 0 6 -30 10 -70 10 l-70 0 0
45 0 45 60 0 c33 0 60 4 60 10 0 6 -27 10 -60 10 l-60 0 0 40 0 40 65 0 c37 0
65 4 65 10 0 6 -33 10 -80 10 l-80 0 0 -115z"/>
<path d="M1499 211 c-25 -25 -29 -37 -29 -84 0 -45 5 -61 26 -86 22 -27 32
-31 74 -31 42 0 52 4 75 32 19 22 23 34 15 36 -8 3 -22 -7 -32 -22 -21 -28
-63 -35 -98 -16 -42 23 -48 117 -9 159 26 28 84 29 101 1 13 -20 38 -28 38
-12 0 5 -10 18 -23 30 -36 34 -100 30 -138 -7z"/>
<path d="M1710 125 c0 -94 3 -115 15 -115 11 0 15 19 17 88 l3 87 57 -87 c79
-121 88 -118 88 27 0 94 -3 115 -15 115 -11 0 -15 -19 -17 -87 l-3 -88 -58 88
c-78 119 -87 116 -87 -28z"/>
<path d="M1969 211 c-25 -25 -29 -37 -29 -85 0 -43 5 -61 23 -81 44 -50 126
-49 167 3 18 23 21 37 18 86 -6 76 -35 106 -104 106 -37 0 -51 -6 -75 -29z
m129 -13 c28 -31 36 -70 22 -113 -27 -83 -136 -72 -155 16 -13 59 27 119 80
119 20 0 39 -8 53 -22z"/>
<path d="M2200 125 l0 -115 70 0 c84 0 94 18 13 22 l-58 3 -3 103 c-4 141 -22
131 -22 -13z"/>
<path d="M2410 213 c-39 -35 -50 -94 -26 -144 21 -44 49 -61 99 -61 31 1 47 8
71 32 27 26 31 37 31 85 0 46 -4 58 -29 84 -41 42 -102 44 -146 4z m125 -18
c33 -32 35 -100 4 -139 -29 -37 -89 -37 -118 0 -49 62 -12 164 59 164 19 0 40
-9 55 -25z"/>
<path d="M2659 209 c-24 -26 -29 -39 -29 -84 0 -106 87 -150 189 -96 16 9 21
21 21 51 l0 40 -50 0 c-27 0 -50 -4 -50 -10 0 -5 16 -10 35 -10 31 0 35 -3 35
-25 0 -29 -26 -45 -73 -45 -49 0 -82 38 -82 95 0 85 86 128 140 70 15 -17 26
-22 30 -15 4 6 -3 22 -16 36 -18 19 -33 24 -72 24 -42 0 -53 -4 -78 -31z"/>
<path d="M2890 125 c0 -96 3 -115 15 -115 12 0 15 19 15 115 0 96 -3 115 -15
115 -12 0 -15 -19 -15 -115z"/>
<path d="M3035 228 c-3 -7 -23 -58 -44 -113 -21 -55 -37 -102 -35 -104 10 -11
33 12 39 38 6 30 9 31 60 31 52 0 54 -1 65 -35 6 -19 18 -35 26 -35 8 0 14 1
14 3 0 2 -20 52 -44 112 -42 104 -68 138 -81 103z m54 -110 c1 -14 -7 -18 -34
-18 -41 0 -43 9 -18 72 l17 42 17 -40 c10 -21 18 -47 18 -56z"/>
<path d="M243 215 c-3 -9 -2 -19 2 -23 3 -4 78 -8 165 -10 167 -4 213 5 189
34 -18 22 -347 21 -356 -1z"/>
<path d="M270 140 c0 -20 40 -49 82 -61 91 -24 206 5 216 55 3 14 -13 16 -147
16 -94 0 -151 -4 -151 -10z"/>
</g>
</svg>
