<svg xmlns="http://www.w3.org/2000/svg" xmlns:xlink="http://www.w3.org/1999/xlink" width="512" zoomAndPan="magnify" viewBox="0 0 384 383.999986" height="512" preserveAspectRatio="xMidYMid meet" version="1.0"><defs><g/><clipPath id="c906ec59be"><path d="M 120.320312 165.714844 L 181 165.714844 L 181 226.464844 L 120.320312 226.464844 Z M 120.320312 165.714844 " clipRule="nonzero"/></clipPath></defs><rect x="-38.4" width="460.8" fill="#ffffff" y="-38.399999" height="460.799983" fill-opacity="1"/><rect x="-38.4" width="460.8" fill="#132561" y="-38.399999" height="460.799983" fill-opacity="1"/><g fill="#ffffff" fill-opacity="1"><g transform="translate(17.591422, 215.586611)"><g><path d="M 58 0 L 39.484375 0 L 17.734375 -25.03125 L 17.734375 0 L 4.296875 0 L 4.296875 -59 L 17.734375 -59 L 17.734375 -34.90625 L 37.96875 -59 L 54.28125 -59 L 30.53125 -31.03125 Z M 58 0 "/></g></g></g><g fill="#ffffff" fill-opacity="1"><g transform="translate(73.876341, 215.586611)"><g><path d="M 4.296875 0 L 4.296875 -36.6875 L 16.953125 -36.6875 L 16.953125 -32.828125 L 17.09375 -32.828125 C 20.382812 -36.117188 23.890625 -37.765625 27.609375 -37.765625 C 29.421875 -37.765625 31.21875 -37.523438 33 -37.046875 C 34.789062 -36.566406 36.507812 -35.828125 38.15625 -34.828125 C 39.800781 -33.828125 41.132812 -32.40625 42.15625 -30.5625 C 43.1875 -28.726562 43.703125 -26.597656 43.703125 -24.171875 L 43.703125 0 L 31.03125 0 L 31.03125 -20.734375 C 31.03125 -22.640625 30.421875 -24.304688 29.203125 -25.734375 C 27.992188 -27.171875 26.410156 -27.890625 24.453125 -27.890625 C 22.546875 -27.890625 20.816406 -27.148438 19.265625 -25.671875 C 17.722656 -24.191406 16.953125 -22.546875 16.953125 -20.734375 L 16.953125 0 Z M 4.296875 0 "/></g></g></g><g fill="#ffffff" fill-opacity="1"><g transform="translate(121.150836, 215.586611)"><g/></g></g><g fill="#ffffff" fill-opacity="1"><g transform="translate(140.675341, 215.586611)"><g/></g></g><g fill="#ffffff" fill-opacity="1"><g transform="translate(160.199845, 215.586611)"><g/></g></g><g fill="#ffffff" fill-opacity="1"><g transform="translate(179.72844, 215.586611)"><g><path d="M 26.8125 0 L 18.234375 0 L -1.4375 -36.6875 L 13.15625 -36.6875 L 22.09375 -16.875 L 30.890625 -36.6875 L 39.625 -36.6875 L 48.421875 -16.875 L 57.359375 -36.6875 L 71.9375 -36.6875 L 52.28125 0 L 43.703125 0 L 35.25 -18.953125 Z M 26.8125 0 "/></g></g></g><g clip-path="url(#c906ec59be)"><path fill="#ffffff" d="M 150.59375 224.449219 C 134.898438 224.449219 122.136719 211.683594 122.136719 195.992188 C 122.136719 180.296875 134.898438 167.53125 150.59375 167.53125 C 166.285156 167.53125 179.054688 180.296875 179.054688 195.992188 C 179.054688 211.683594 166.285156 224.449219 150.59375 224.449219 Z M 150.59375 165.714844 C 134.570312 165.714844 121.453125 178.164062 120.390625 193.917969 L 120.390625 193.921875 C 120.34375 194.605469 120.320312 195.296875 120.320312 195.992188 C 120.320312 198.46875 120.617188 200.882812 121.183594 203.191406 C 124.414062 216.433594 136.355469 226.265625 150.59375 226.265625 C 167.3125 226.265625 180.871094 212.710938 180.871094 195.992188 C 180.871094 179.269531 167.3125 165.714844 150.59375 165.714844 " fill-opacity="1" fillRule="nonzero"/></g><path fill="#ffffff" d="M 167.929688 213.460938 L 133.257812 213.460938 L 133.472656 211.457031 C 134.253906 204.105469 139.542969 198.273438 146.433594 196.570312 C 143.269531 195.027344 141.085938 191.777344 141.085938 188.023438 C 141.085938 182.78125 145.351562 178.519531 150.59375 178.519531 C 155.835938 178.519531 160.101562 182.78125 160.101562 188.023438 C 160.101562 191.777344 157.917969 195.027344 154.753906 196.570312 C 161.644531 198.273438 166.9375 204.105469 167.714844 211.457031 L 167.929688 213.460938 " fill-opacity="1" fillRule="nonzero"/><g fill="#ffffff" fill-opacity="1"><g transform="translate(250.988148, 217.259222)"><g><path d="M 4.578125 0 L 4.578125 -39.109375 L 18.078125 -39.109375 L 18.078125 -35 L 18.21875 -35 C 21.726562 -38.507812 25.46875 -40.265625 29.4375 -40.265625 C 32.28125 -40.265625 34.945312 -39.675781 37.4375 -38.5 C 39.925781 -37.332031 41.804688 -35.53125 43.078125 -33.09375 C 47.046875 -37.875 51.367188 -40.265625 56.046875 -40.265625 C 60.210938 -40.265625 63.796875 -39.09375 66.796875 -36.75 C 69.796875 -34.414062 71.296875 -30.753906 71.296875 -25.765625 L 71.296875 0 L 57.796875 0 L 57.796875 -22.109375 C 57.796875 -24.191406 57.222656 -25.929688 56.078125 -27.328125 C 54.929688 -28.734375 53.21875 -29.4375 50.9375 -29.4375 C 48.957031 -29.4375 47.441406 -28.835938 46.390625 -27.640625 C 45.347656 -26.441406 44.78125 -25.003906 44.6875 -23.328125 L 44.6875 0 L 31.1875 0 L 31.1875 -22.109375 C 31.1875 -24.191406 30.613281 -25.929688 29.46875 -27.328125 C 28.320312 -28.734375 26.609375 -29.4375 24.328125 -29.4375 C 22.242188 -29.4375 20.679688 -28.785156 19.640625 -27.484375 C 18.597656 -26.191406 18.078125 -24.65625 18.078125 -22.875 L 18.078125 0 Z M 4.578125 0 "/></g></g></g><g fill="#ffffff" fill-opacity="1"><g transform="translate(326.086664, 217.259222)"><g><path d="M 44.15625 -17.6875 L 15.78125 -17.6875 C 15.78125 -14.945312 16.671875 -12.914062 18.453125 -11.59375 C 20.234375 -10.269531 22.164062 -9.609375 24.25 -9.609375 C 26.4375 -9.609375 28.164062 -9.898438 29.4375 -10.484375 C 30.707031 -11.066406 32.15625 -12.222656 33.78125 -13.953125 L 43.53125 -9.078125 C 39.46875 -2.265625 32.707031 1.140625 23.25 1.140625 C 17.351562 1.140625 12.296875 -0.878906 8.078125 -4.921875 C 3.859375 -8.960938 1.75 -13.828125 1.75 -19.515625 C 1.75 -25.210938 3.859375 -30.09375 8.078125 -34.15625 C 12.296875 -38.226562 17.351562 -40.265625 23.25 -40.265625 C 29.457031 -40.265625 34.503906 -38.472656 38.390625 -34.890625 C 42.273438 -31.304688 44.21875 -26.179688 44.21875 -19.515625 C 44.21875 -18.597656 44.195312 -17.988281 44.15625 -17.6875 Z M 16.171875 -25.15625 L 31.03125 -25.15625 C 30.726562 -27.195312 29.925781 -28.757812 28.625 -29.84375 C 27.332031 -30.9375 25.671875 -31.484375 23.640625 -31.484375 C 21.398438 -31.484375 19.617188 -30.898438 18.296875 -29.734375 C 16.972656 -28.566406 16.265625 -27.039062 16.171875 -25.15625 Z M 16.171875 -25.15625 "/></g></g></g><g fill="#ffffff" fill-opacity="1"><g transform="translate(295.45393, 244.092168)"><g><path d="M 1.765625 -2.15625 C 1.765625 -2.988281 1.988281 -3.617188 2.4375 -4.046875 C 2.882812 -4.484375 3.539062 -4.703125 4.40625 -4.703125 C 5.238281 -4.703125 5.878906 -4.476562 6.328125 -4.03125 C 6.785156 -3.59375 7.015625 -2.96875 7.015625 -2.15625 C 7.015625 -1.363281 6.785156 -0.738281 6.328125 -0.28125 C 5.867188 0.175781 5.226562 0.40625 4.40625 0.40625 C 3.5625 0.40625 2.910156 0.179688 2.453125 -0.265625 C 1.992188 -0.710938 1.765625 -1.34375 1.765625 -2.15625 Z M 1.765625 -2.15625 "/></g></g></g><g fill="#ffffff" fill-opacity="1"><g transform="translate(304.232509, 244.092168)"><g><path d="M 13.078125 0 L 12.1875 -2.28125 L 12.0625 -2.28125 C 11.289062 -1.3125 10.5 -0.640625 9.6875 -0.265625 C 8.875 0.109375 7.8125 0.296875 6.5 0.296875 C 4.882812 0.296875 3.613281 -0.160156 2.6875 -1.078125 C 1.757812 -2.003906 1.296875 -3.316406 1.296875 -5.015625 C 1.296875 -6.804688 1.914062 -8.125 3.15625 -8.96875 C 4.40625 -9.8125 6.289062 -10.28125 8.8125 -10.375 L 11.71875 -10.453125 L 11.71875 -11.203125 C 11.71875 -12.898438 10.847656 -13.75 9.109375 -13.75 C 7.765625 -13.75 6.1875 -13.34375 4.375 -12.53125 L 2.859375 -15.625 C 4.785156 -16.644531 6.925781 -17.15625 9.28125 -17.15625 C 11.539062 -17.15625 13.269531 -16.660156 14.46875 -15.671875 C 15.675781 -14.691406 16.28125 -13.203125 16.28125 -11.203125 L 16.28125 0 Z M 11.71875 -7.78125 L 9.953125 -7.71875 C 8.617188 -7.6875 7.625 -7.445312 6.96875 -7 C 6.320312 -6.5625 6 -5.890625 6 -4.984375 C 6 -3.691406 6.738281 -3.046875 8.21875 -3.046875 C 9.28125 -3.046875 10.128906 -3.351562 10.765625 -3.96875 C 11.398438 -4.582031 11.71875 -5.394531 11.71875 -6.40625 Z M 11.71875 -7.78125 "/></g></g></g><g fill="#ffffff" fill-opacity="1"><g transform="translate(322.826868, 244.092168)"><g><path d="M 11.640625 0.296875 C 9.660156 0.296875 8.109375 -0.414062 6.984375 -1.84375 L 6.75 -1.84375 C 6.90625 -0.445312 6.984375 0.363281 6.984375 0.59375 L 6.984375 7.390625 L 2.40625 7.390625 L 2.40625 -16.796875 L 6.125 -16.796875 L 6.78125 -14.625 L 6.984375 -14.625 C 8.054688 -16.289062 9.644531 -17.125 11.75 -17.125 C 13.738281 -17.125 15.289062 -16.351562 16.40625 -14.8125 C 17.53125 -13.28125 18.09375 -11.15625 18.09375 -8.4375 C 18.09375 -6.632812 17.828125 -5.070312 17.296875 -3.75 C 16.773438 -2.4375 16.03125 -1.429688 15.0625 -0.734375 C 14.09375 -0.046875 12.953125 0.296875 11.640625 0.296875 Z M 10.28125 -13.453125 C 9.144531 -13.453125 8.316406 -13.101562 7.796875 -12.40625 C 7.273438 -11.707031 7.003906 -10.554688 6.984375 -8.953125 L 6.984375 -8.46875 C 6.984375 -6.65625 7.25 -5.359375 7.78125 -4.578125 C 8.320312 -3.796875 9.175781 -3.40625 10.34375 -3.40625 C 12.394531 -3.40625 13.421875 -5.097656 13.421875 -8.484375 C 13.421875 -10.140625 13.164062 -11.378906 12.65625 -12.203125 C 12.15625 -13.035156 11.363281 -13.453125 10.28125 -13.453125 Z M 10.28125 -13.453125 "/></g></g></g><g fill="#ffffff" fill-opacity="1"><g transform="translate(342.308098, 244.092168)"><g><path d="M 11.640625 0.296875 C 9.660156 0.296875 8.109375 -0.414062 6.984375 -1.84375 L 6.75 -1.84375 C 6.90625 -0.445312 6.984375 0.363281 6.984375 0.59375 L 6.984375 7.390625 L 2.40625 7.390625 L 2.40625 -16.796875 L 6.125 -16.796875 L 6.78125 -14.625 L 6.984375 -14.625 C 8.054688 -16.289062 9.644531 -17.125 11.75 -17.125 C 13.738281 -17.125 15.289062 -16.351562 16.40625 -14.8125 C 17.53125 -13.28125 18.09375 -11.15625 18.09375 -8.4375 C 18.09375 -6.632812 17.828125 -5.070312 17.296875 -3.75 C 16.773438 -2.4375 16.03125 -1.429688 15.0625 -0.734375 C 14.09375 -0.046875 12.953125 0.296875 11.640625 0.296875 Z M 10.28125 -13.453125 C 9.144531 -13.453125 8.316406 -13.101562 7.796875 -12.40625 C 7.273438 -11.707031 7.003906 -10.554688 6.984375 -8.953125 L 6.984375 -8.46875 C 6.984375 -6.65625 7.25 -5.359375 7.78125 -4.578125 C 8.320312 -3.796875 9.175781 -3.40625 10.34375 -3.40625 C 12.394531 -3.40625 13.421875 -5.097656 13.421875 -8.484375 C 13.421875 -10.140625 13.164062 -11.378906 12.65625 -12.203125 C 12.15625 -13.035156 11.363281 -13.453125 10.28125 -13.453125 Z M 10.28125 -13.453125 "/></g></g></g></svg>