<?xml version="1.0" standalone="no"?>
<!DOCTYPE svg PUBLIC "-//W3C//DTD SVG 20010904//EN"
 "http://www.w3.org/TR/2001/REC-SVG-20010904/DTD/svg10.dtd">
<svg version="1.0" xmlns="http://www.w3.org/2000/svg"
 width="1678.000000pt" height="591.000000pt" viewBox="0 0 1678.000000 591.000000"
 preserveAspectRatio="xMidYMid meet">

<g transform="translate(0.000000,591.000000) scale(0.100000,-0.100000)"
fill="#000000" stroke="none">
<path d="M1230 3408 l0 -1173 260 0 260 0 0 498 c0 391 3 497 13 496 6 0 204
-223 439 -495 l428 -494 364 -3 363 -2 -36 41 c-20 23 -263 298 -541 613 -278
314 -506 575 -508 580 -2 5 102 132 231 283 128 150 338 397 467 548 l233 275
-313 3 c-195 1 -317 -1 -324 -8 -7 -5 -190 -221 -406 -479 -217 -258 -398
-467 -402 -465 -4 3 -8 219 -8 480 l0 474 -260 0 -260 0 0 -1172z"/>
<path d="M4250 3708 c-81 -28 -139 -63 -208 -122 -30 -25 -58 -46 -63 -46 -5
0 -9 34 -9 75 l0 75 -245 0 -245 0 0 -727 0 -728 242 0 243 0 5 445 5 445 26
50 c50 95 177 175 280 175 61 0 143 -36 183 -80 83 -92 86 -116 86 -618 l0
-417 246 0 245 0 -3 535 -3 535 -27 73 c-58 159 -173 258 -373 322 -52 16
-103 23 -195 27 -111 3 -132 1 -190 -19z"/>
<path d="M7490 3683 c0 -4 174 -331 386 -728 l386 -720 167 2 166 2 166 372
c92 205 170 374 175 376 5 1 84 -167 177 -375 l167 -377 167 2 167 2 324 603
c178 332 353 658 388 726 l66 122 -284 0 -284 0 -176 -392 c-97 -216 -181
-394 -185 -395 -4 -1 -86 175 -182 393 l-174 394 -171 -2 -170 -3 -175 -392
c-96 -216 -177 -393 -180 -393 -3 0 -85 177 -182 393 l-177 392 -281 3 c-154
1 -281 -1 -281 -5z"/>
<path d="M12755 1754 c-152 -39 -153 -40 -120 -105 15 -30 29 -55 30 -57 2 -2
16 3 32 11 42 22 140 40 178 33 51 -10 85 -50 85 -102 l0 -44 -84 0 c-229 0
-325 -62 -326 -210 0 -90 29 -147 90 -178 39 -20 56 -23 126 -20 66 4 90 9
127 31 26 15 51 36 57 47 16 30 27 24 45 -24 l17 -44 60 -4 59 -3 -3 260 c-3
243 -4 263 -24 300 -12 22 -27 39 -33 38 -6 -2 -10 2 -8 8 1 7 -20 23 -46 37
-40 21 -64 26 -145 28 -53 2 -106 1 -117 -2z m205 -406 c0 -93 -55 -148 -148
-148 -56 0 -92 31 -92 79 0 78 61 118 188 120 l52 1 0 -52z"/>
<path d="M13605 1742 c-23 -11 -53 -33 -67 -51 -15 -17 -31 -31 -36 -31 -5 0
-15 20 -22 45 l-13 45 -68 0 -69 0 0 -481 0 -480 86 2 86 2 -4 183 c-1 101 0
184 3 184 4 0 21 -13 39 -30 82 -77 250 -65 325 23 56 65 78 152 74 291 -4
106 -6 117 -39 182 -28 55 -45 74 -84 98 -62 39 -150 46 -211 18z m102 -138
c45 -28 58 -71 58 -184 0 -120 -11 -151 -65 -188 -27 -18 -44 -23 -73 -19 -83
11 -117 60 -124 181 -6 90 6 150 38 190 35 45 112 54 166 20z"/>
<path d="M14391 1746 c-19 -7 -52 -30 -73 -51 -43 -42 -52 -39 -64 23 l-6 32
-69 0 -69 0 0 -479 0 -479 86 0 87 0 -5 184 c-3 101 -3 184 0 184 2 0 18 -12
36 -27 46 -38 88 -53 154 -53 74 0 149 35 185 88 50 71 61 117 61 252 0 106
-3 133 -22 182 -50 125 -180 188 -301 144z m96 -143 c41 -27 57 -80 58 -183 0
-75 -4 -103 -20 -135 -53 -106 -203 -91 -235 24 -13 46 -13 175 0 222 11 38
53 84 85 92 29 7 86 -4 112 -20z"/>
<path d="M12249 1250 c-25 -15 -42 -65 -35 -103 9 -50 38 -71 96 -71 53 0 77
14 92 53 12 32 1 94 -14 85 -7 -5 -8 -2 -4 5 20 31 -92 56 -135 31z"/>
</g>
</svg>
